<svg width="0" height="0" class="hidden">
  <symbol xmlns="http://www.w3.org/2000/svg" viewBox="0 0 19 19" id="search">
    <path fill-rule="evenodd" clip-rule="evenodd" d="M17.9 16.486l-3.58-3.58a8 8 0 10-1.415 1.413l3.58 3.58a1 1 0 101.416-1.413zM13.198 11A6 6 0 112.804 5a6 6 0 0110.393 6z"></path>
  </symbol>
   <symbol xmlns="http://www.w3.org/2000/svg" viewBox="0 0 27 20" id="video">
    <path fill-rule="evenodd" clip-rule="evenodd" d="M22.208 2.868L18.41 5.682v-3.18C18.41 1.119 17.31 0 15.955 0h-13.5C1.095 0 0 1.12 0 2.503v14.994C0 18.882 1.099 20 2.454 20h13.501c1.358 0 2.454-1.12 2.454-2.503v-3.179l3.8 2.814a2.19 2.19 0 001.111.368h2.45c.686 0 1.23-.561 1.23-1.253V3.753c0-.692-.551-1.253-1.23-1.253h-2.45a2.16 2.16 0 00-1.112.368zM2.455 17.5v-15h13.5v15h-13.5zm2.454-3.75c0-.69.55-1.25 1.231-1.25h6.13c.679 0 1.23.555 1.23 1.25 0 .69-.55 1.25-1.23 1.25H6.14c-.68 0-1.23-.555-1.23-1.25zM23.511 15l-5.087-3.762V8.762l5.083-3.765 1.038.001v10L23.512 15z"></path>
  </symbol>
  <symbol xmlns="http://www.w3.org/2000/svg" viewBox="0 0 21 21" id="apps">
    <path fill-rule="evenodd" clip-rule="evenodd" d="M0 2.5a2.5 2.5 0 105 0 2.5 2.5 0 00-5 0zM2.5 13a2.5 2.5 0 110-5 2.5 2.5 0 010 5zm0 8a2.5 2.5 0 110-5 2.5 2.5 0 010 5zm8 0a2.5 2.5 0 110-5 2.5 2.5 0 010 5zm5.5-2.5a2.5 2.5 0 105 0 2.5 2.5 0 00-5 0zM10.5 13a2.5 2.5 0 110-5 2.5 2.5 0 010 5zM8 2.5a2.5 2.5 0 105 0 2.5 2.5 0 00-5 0zM18.5 13a2.5 2.5 0 110-5 2.5 2.5 0 010 5zM16 2.5a2.5 2.5 0 105 0 2.5 2.5 0 00-5 0z"></path>
  </symbol>
  <symbol xmlns="http://www.w3.org/2000/svg" viewBox="0 0 22 26" id="notifications">
    <path fill-rule="evenodd" clip-rule="evenodd" d="M3.67 22.454C1.643 22.454 0 20.866 0 18.91c0-1.298.727-2.456 1.838-3.074l-.005-4.61c0-4.083 2.836-7.521 6.723-8.548v-.313C8.556 1.058 9.65 0 11 0c1.35 0 2.444 1.058 2.444 2.364v.313c3.888 1.026 6.723 4.465 6.723 8.555v4.613C21.279 16.466 22 17.62 22 18.91c0 1.96-1.641 3.546-3.67 3.546h-3.663C14.665 24.412 13.02 26 11 26c-2.025 0-3.667-1.586-3.667-3.543l-3.664-.003zm6.108 0c0 .654.546 1.182 1.222 1.182.67 0 1.22-.53 1.222-1.181H9.778zm7.944-11.222v5.71c0 .328.27.661.596.743l.32.08c.535.133.918.604.918 1.144 0 .653-.547 1.182-1.225 1.182H3.669c-.675 0-1.225-.531-1.225-1.182 0-.542.381-1.011.916-1.144l.332-.083a.803.803 0 00.586-.74v-5.716c0-3.59 3.009-6.499 6.722-6.499 3.715 0 6.722 2.908 6.722 6.505z"></path>
  </symbol>
</svg>